<?xml version="1.0" standalone="no"?>
<!DOCTYPE svg PUBLIC "-//W3C//DTD SVG 20010904//EN"
 "http://www.w3.org/TR/2001/REC-SVG-20010904/DTD/svg10.dtd">
<svg version="1.0" xmlns="http://www.w3.org/2000/svg"
 width="208.000000pt" height="242.000000pt" viewBox="0 0 208.000000 242.000000"
 preserveAspectRatio="xMidYMid meet" style="background-color:white">

<g transform="translate(0.000000,242.000000) scale(0.100000,-0.100000)"
fill="blue" stroke="none">
<path d="M898 2373 c-51 -52 -103 -83 -142 -83 -54 0 -59 -14 -64 -191 -3 -87
-7 -159 -11 -159 -29 1 -51 56 -51 131 0 58 -21 81 -50 54 -18 -16 -20 -15
-58 24 -21 23 -44 41 -51 41 -7 0 -22 -11 -35 -25 -13 -14 -33 -25 -44 -25
-25 0 -45 -19 -61 -58 -8 -19 -23 -33 -38 -37 -25 -6 -26 -7 -20 -73 4 -37 9
-83 13 -103 l6 -36 -58 -6 c-33 -3 -69 -14 -83 -25 -23 -17 -26 -27 -29 -97
-2 -47 1 -81 8 -85 7 -4 7 -16 -1 -39 -7 -19 -9 -61 -5 -104 3 -40 6 -80 6
-89 0 -9 9 -19 19 -23 19 -6 19 -6 1 -48 -14 -29 -20 -65 -20 -118 l0 -77 49
-38 50 -37 -6 -99 c-5 -89 -4 -98 11 -98 10 0 34 -16 53 -35 22 -22 36 -30 39
-21 3 7 24 12 54 13 50 1 50 1 50 -32 0 -38 -15 -57 -89 -114 -90 -69 -141
-118 -141 -133 0 -47 119 -196 210 -262 80 -59 231 -132 293 -141 224 -34 254
-36 391 -25 76 6 143 13 147 16 5 3 27 7 49 10 106 13 318 137 395 231 64 78
127 190 120 211 -5 16 -282 203 -311 210 -20 5 -17 23 10 54 30 35 39 35 77
-2 l31 -29 43 24 c23 14 49 25 58 25 11 0 17 8 17 23 0 12 7 42 16 67 11 30
18 95 21 200 l6 155 44 33 c41 31 43 35 37 68 -5 27 -2 42 14 63 l20 28 -43
37 c-49 40 -57 43 -75 21 -13 -15 -81 -21 -93 -8 -9 8 47 33 73 33 30 0 60 48
60 93 0 28 7 48 21 63 25 26 19 54 -10 54 -11 0 -43 16 -73 36 -50 34 -56 35
-115 30 -69 -6 -85 4 -58 34 18 20 25 105 15 177 l-4 33 -28 -27 c-15 -15 -30
-24 -34 -21 -5 5 4 46 22 111 8 26 -19 21 -46 -8 -28 -29 -40 -19 -40 33 l0
33 -42 -25 c-58 -35 -98 -74 -98 -97 0 -14 -7 -19 -26 -19 -33 0 -54 -49 -54
-126 0 -52 3 -60 40 -100 28 -30 40 -53 40 -73 0 -45 -31 -61 -116 -61 -70 0
-73 -1 -103 -35 -35 -40 -46 -43 -61 -15 -13 24 -1 160 14 165 6 2 42 7 79 10
l69 7 -4 215 c-3 212 -3 215 -27 234 -13 10 -38 19 -57 19 -18 0 -36 4 -39 10
-3 5 -18 7 -33 4 -25 -5 -28 -2 -42 38 -21 60 -52 63 -102 11z m77 -29 c6 -18
8 -93 5 -180 -5 -142 -6 -149 -26 -152 -13 -2 -24 4 -28 14 -8 22 -9 315 0
338 10 26 38 15 49 -20z m-102 -132 c8 -109 -1 -192 -19 -192 -11 0 -14 20
-15 83 -2 99 1 179 8 190 13 21 21 -2 26 -81z m187 57 c0 -12 -7 -19 -20 -19
-22 0 -26 20 -8 38 15 15 28 6 28 -19z m76 7 c19 -20 18 -26 -6 -26 -13 0 -20
7 -20 20 0 24 6 25 26 6z m-348 -5 c18 -11 -12 -35 -34 -27 -13 5 -14 9 -4 21
14 17 20 18 38 6z m267 -61 c-3 -5 -3 -16 2 -22 4 -7 8 -29 10 -48 2 -19 4
-50 6 -69 4 -44 -18 -70 -41 -47 -11 11 -16 37 -16 88 -1 82 6 108 29 108 9 0
13 -4 10 -10z m103 -18 c5 -32 -16 -56 -34 -41 -15 12 -19 51 -7 63 14 13 38
0 41 -22z m-368 -16 c0 -30 -14 -40 -44 -32 -19 5 -22 11 -18 31 3 20 10 25
33 25 24 0 29 -4 29 -24z m-275 -66 c26 -41 39 -47 65 -30 22 14 30 -7 30 -78
0 -60 -2 -67 -39 -108 -37 -42 -51 -78 -51 -130 0 -42 -24 -25 -53 36 -18 37
-26 68 -22 80 10 32 -19 24 -32 -9 -10 -26 -14 -28 -44 -22 -42 9 -59 39 -59
108 0 41 4 54 19 62 10 6 26 29 35 52 17 42 22 43 67 25 12 -5 20 1 29 23 7
17 16 31 21 31 5 0 20 -18 34 -40z m900 20 c-3 -5 -1 -10 5 -10 6 0 10 -6 8
-12 -1 -7 6 -26 17 -42 19 -28 19 -28 27 -6 5 13 11 20 14 17 3 -3 1 -14 -5
-25 -6 -12 -11 -34 -11 -51 0 -26 4 -31 25 -31 16 0 25 6 25 15 0 8 6 15 14
15 8 0 15 -16 19 -42 5 -36 1 -47 -25 -80 -35 -45 -45 -47 -54 -13 -11 43 -34
30 -34 -19 0 -33 -4 -45 -17 -50 -10 -3 -23 -8 -30 -12 -8 -4 -9 5 -1 35 12
47 4 91 -17 91 -17 0 -85 86 -85 108 0 12 9 13 50 8 32 -4 50 -3 50 4 0 5 -4
10 -9 10 -5 0 -12 12 -15 26 -5 19 -1 32 16 50 23 23 45 33 33 14z m-247 -35
c3 -34 -15 -75 -32 -75 -9 0 -18 14 -22 37 -5 29 -3 39 11 50 28 19 40 16 43
-12z m-380 -29 c4 -45 -7 -61 -37 -51 -16 5 -21 15 -21 44 0 44 6 53 35 49 15
-2 21 -12 23 -42z m182 -91 c10 -12 10 -18 0 -30 -7 -8 -18 -15 -25 -15 -16 0
-26 48 -11 54 19 8 23 7 36 -9z m99 -4 c7 -13 7 -23 -2 -35 -11 -15 -14 -15
-35 -1 -18 13 -20 20 -12 36 13 24 36 25 49 0z m-279 -1 c4 0 6 -9 3 -20 -6
-23 -48 -28 -56 -6 -7 18 13 38 31 31 8 -3 17 -5 22 -5z m370 -10 c0 -13 -7
-20 -20 -20 -13 0 -20 7 -20 20 0 13 7 20 20 20 13 0 20 -7 20 -20z m-280 -15
c0 -27 -9 -32 -28 -13 -18 18 -14 38 8 38 15 0 20 -7 20 -25z m470 -103 c0
-22 -3 -21 -40 18 -41 42 -45 51 -33 64 12 11 73 -57 73 -82z m-662 47 c3 -26
-4 -31 -70 -53 -30 -9 -31 13 -1 49 34 41 66 43 71 4z m145 -3 c10 -26 -27
-48 -67 -41 -37 7 -45 22 -24 43 17 17 85 15 91 -2z m104 -23 c-3 -10 -5 -4
-5 12 0 17 2 24 5 18 2 -7 2 -21 0 -30z m83 17 c0 -11 -7 -20 -15 -20 -8 0
-15 9 -15 20 0 11 7 20 15 20 8 0 15 -9 15 -20z m80 7 c0 -8 -3 -17 -7 -20 -9
-9 -34 13 -27 24 8 14 34 11 34 -4z m63 -2 c4 -8 2 -17 -3 -20 -6 -4 -10 -4
-10 -1 0 2 -3 11 -6 20 -3 9 -2 16 4 16 5 0 12 -7 15 -15z m-273 -10 c0 -8 -4
-15 -10 -15 -5 0 -10 7 -10 15 0 8 5 15 10 15 6 0 10 -7 10 -15z m-483 -75
c35 -21 58 -55 44 -65 -17 -10 -163 -25 -190 -19 -73 16 -91 26 -91 48 0 21 6
24 67 29 37 4 71 11 77 17 16 16 58 12 93 -10z m293 -20 c0 -25 5 -40 12 -40
8 0 6 -6 -4 -17 -14 -14 -22 -15 -43 -5 -44 20 -31 102 17 102 14 0 18 -8 18
-40z m218 29 c-5 -3 -8 -11 -6 -18 4 -17 -76 -61 -112 -61 -31 0 -50 22 -50
59 0 15 8 21 33 24 48 5 146 3 135 -4z m775 -2 c2 -7 26 -23 52 -36 41 -20 45
-25 33 -38 -13 -12 -19 -12 -46 4 -27 16 -32 16 -49 3 -10 -9 -32 -23 -49 -33
-31 -17 -32 -16 -48 8 -9 13 -16 29 -16 35 0 5 -6 10 -14 10 -24 0 -26 16 -5
38 16 18 31 22 78 22 38 0 61 -4 64 -13z m-1103 -44 c0 -28 8 -45 32 -70 29
-30 30 -35 19 -60 l-13 -27 -17 22 c-12 17 -25 22 -51 20 -44 -4 -51 22 -16
57 18 18 26 37 26 60 0 19 5 35 10 35 6 0 10 -17 10 -37z m430 12 c0 -20 -5
-25 -25 -25 -20 0 -25 5 -25 25 0 20 5 25 25 25 20 0 25 -5 25 -25z m477 -31
c53 -40 16 -62 -48 -28 -30 15 -30 16 -13 35 22 24 20 24 61 -7z m-537 -19 c0
-8 -5 -24 -12 -35 -11 -17 -8 -24 16 -49 32 -33 40 -27 -81 -60 -72 -19 -83
-19 -83 5 0 7 -16 30 -35 51 -19 21 -35 42 -35 46 0 5 24 6 53 2 45 -5 59 -2
107 24 64 35 70 36 70 16z m-767 -21 c5 -5 177 -6 256 -1 14 1 25 -4 26 -13 2
-8 8 -33 14 -56 9 -33 8 -51 -5 -94 -9 -31 -14 -77 -12 -109 2 -41 -1 -59 -11
-67 -13 -10 -13 -17 -3 -38 7 -15 12 -45 12 -67 0 -33 -3 -40 -17 -37 -10 2
-22 18 -28 36 -12 41 -28 41 -46 0 -21 -48 -45 -48 -53 -1 -3 21 -6 60 -6 86
0 35 -4 47 -12 45 -9 -3 -15 -45 -19 -139 -3 -74 -9 -142 -13 -151 -11 -25
-33 -22 -73 8 -32 25 -33 26 -33 103 0 73 2 81 33 121 17 24 36 49 42 56 14
20 1 26 -29 14 -33 -12 -46 -6 -46 23 -1 12 -7 33 -15 47 -20 35 -18 60 7 87
18 19 32 23 85 23 49 0 63 3 63 15 0 12 -14 15 -65 15 -62 0 -66 1 -76 27 -16
41 1 89 24 67z m1303 -44 c18 0 45 -5 60 -10 36 -14 73 -5 108 25 31 27 65 32
97 15 21 -12 26 -52 7 -68 -20 -16 -131 -42 -181 -42 -31 0 -47 -5 -51 -16 -4
-11 11 -23 61 -46 64 -30 68 -31 131 -20 74 12 109 3 96 -26 -4 -9 -8 -36 -8
-60 -1 -38 -15 -61 -37 -62 -4 0 -18 18 -33 40 -31 48 -62 55 -52 13 4 -16 16
-45 27 -66 16 -32 20 -62 21 -165 2 -85 -2 -140 -11 -166 l-14 -39 -18 24
c-43 55 -62 114 -69 214 -9 108 -27 176 -49 183 -11 4 -12 -1 -7 -19 3 -13 9
-45 12 -70 8 -57 -7 -70 -40 -35 -13 14 -27 26 -31 26 -4 0 -4 -22 0 -49 4
-27 2 -51 -3 -55 -5 -3 -23 7 -41 22 l-33 27 1 114 0 113 -35 36 c-19 19 -34
42 -34 51 0 9 -7 37 -16 62 -10 27 -14 57 -10 72 l6 27 56 -25 c31 -14 71 -25
90 -25z m-486 15 c0 -8 -4 -15 -10 -15 -5 0 -10 7 -10 15 0 8 5 15 10 15 6 0
10 -7 10 -15z m300 5 c0 -5 -5 -10 -11 -10 -5 0 -7 5 -4 10 3 6 8 10 11 10 2
0 4 -4 4 -10z m-99 -15 c40 -18 89 -60 113 -97 17 -27 17 -27 -24 -65 -24 -21
-45 -39 -49 -41 -4 -1 -15 12 -25 30 -11 18 -29 42 -42 53 -17 15 -23 34 -26
78 -5 63 -1 66 53 42z m-467 -66 c14 -23 25 -42 24 -43 -54 -31 -82 -26 -90
19 -5 24 15 65 31 65 4 0 20 -19 35 -41z m374 19 c-2 -17 -9 -22 -23 -20 -29
5 -31 10 -9 27 27 20 36 18 32 -7z m-526 -25 c26 -23 23 -39 -14 -73 -35 -31
-68 -39 -68 -17 0 25 45 107 58 107 3 0 14 -7 24 -17z m493 -43 c11 -4 32 -12
46 -18 35 -14 86 -99 72 -121 -16 -25 -41 -25 -72 2 -20 17 -47 26 -88 31 -68
8 -86 3 -126 -33 -16 -14 -32 -25 -35 -24 -4 0 -19 -6 -34 -15 -25 -15 -30
-15 -62 1 -38 18 -50 43 -44 98 3 32 6 34 43 37 22 2 44 8 49 13 6 5 18 9 27
9 9 0 22 7 30 16 9 11 22 14 43 10 17 -3 47 -2 66 3 35 8 47 6 85 -9z m-420
-54 c26 -29 32 -94 9 -103 -22 -8 -42 13 -26 29 19 19 15 48 -8 48 -11 0 -20
-4 -20 -10 0 -5 -7 -10 -15 -10 -21 0 -19 20 7 47 26 28 26 28 53 -1z m715
-42 c19 -48 14 -54 -40 -54 -56 0 -63 11 -34 55 22 34 61 33 74 -1z m-826 -20
c6 -16 -9 -44 -24 -44 -10 0 -21 41 -14 52 9 14 32 9 38 -8z m526 -34 c12 -8
16 -45 19 -210 l3 -200 159 0 159 0 0 -70 0 -70 -155 0 -155 0 0 -185 0 -185
-120 0 -120 0 0 185 0 185 -155 0 -155 0 0 70 0 70 145 0 145 0 2 172 c3 154
5 171 20 174 10 1 37 18 60 38 35 30 49 36 87 36 25 0 53 -5 61 -10z m-460
-25 c7 -9 30 -15 54 -15 22 -1 52 -7 66 -15 14 -8 37 -14 53 -15 l27 0 0 -82
c0 -46 3 -114 7 -151 l6 -68 -139 3 -139 3 -3 164 c-3 169 2 191 38 191 10 0
23 -7 30 -15z m782 -42 c1 -21 2 -52 3 -69 1 -18 17 -52 35 -77 32 -44 33 -67
4 -67 -20 0 -17 -18 6 -30 23 -13 60 6 60 31 0 17 50 69 66 69 6 0 16 -30 24
-67 13 -72 53 -163 76 -176 8 -4 14 -21 14 -37 0 -25 -6 -32 -36 -45 -35 -14
-37 -14 -66 10 -38 32 -81 33 -106 0 -11 -13 -22 -21 -26 -18 -3 3 -6 46 -6
95 l0 88 -90 0 c-83 0 -89 1 -81 18 35 65 82 174 92 214 16 67 9 78 -50 78
-42 0 -56 -6 -99 -40 -28 -21 -53 -44 -57 -50 -15 -25 -25 -6 -25 50 l0 60
130 0 130 0 2 -37z m-883 -142 c1 -93 1 -94 -19 -76 -28 26 -34 52 -16 77 10
14 16 46 17 83 2 97 17 26 18 -84z m806 77 c-8 -40 -41 -108 -87 -177 -29 -45
-37 -51 -67 -51 -27 0 -32 3 -29 18 7 24 168 242 180 242 5 0 7 -14 3 -32z
m-124 -45 c-53 -71 -61 -77 -61 -44 0 10 17 30 38 44 47 33 48 33 23 0z m-782
-60 c11 -21 38 -57 59 -80 l40 -42 3 -190 4 -190 -27 26 c-21 20 -28 36 -28
65 0 68 -53 144 -75 108 -10 -17 -32 -11 -38 10 -7 27 -21 25 -37 -5 l-13 -24
-28 20 c-27 19 -29 25 -29 84 0 56 3 65 25 79 24 16 38 53 50 128 6 36 13 41
62 47 7 0 21 -16 32 -36z m291 -364 c0 -6 -14 -42 -31 -81 -17 -38 -32 -77
-34 -86 -2 -10 -7 -26 -11 -36 -7 -17 -2 -16 37 7 24 14 70 39 102 55 l57 29
0 -103 0 -104 -47 0 c-59 0 -134 34 -186 82 l-37 35 0 106 0 105 75 1 c48 1
75 -3 75 -10z m80 3 c0 -5 -9 -17 -20 -27 -20 -18 -25 -11 -14 19 6 17 34 23
34 8z m645 -9 c-5 -10 -9 -54 -11 -97 -3 -66 -7 -83 -26 -103 -31 -33 -98 -69
-186 -98 -69 -24 -72 -18 -72 155 0 80 3 150 7 153 3 4 71 7 151 7 133 0 144
-1 137 -17z m-605 -42 c0 -10 -11 -26 -25 -35 -29 -19 -31 -14 -8 25 20 33 33
37 33 10z m659 -24 c8 -11 6 -18 -9 -32 -20 -18 -20 -17 -20 13 0 34 10 41 29
19z m208 -130 c29 -19 57 -37 64 -39 9 -3 9 -10 -1 -28 -7 -14 -16 -27 -19
-30 -3 -3 -26 -31 -50 -63 -86 -113 -283 -245 -391 -262 -19 -3 -46 -10 -60
-15 -124 -45 -394 -39 -565 12 -121 36 -303 168 -369 266 -24 37 -46 72 -48
79 -2 6 28 34 66 63 127 95 104 96 204 -7 78 -81 95 -93 162 -119 74 -27 79
-28 291 -28 l216 -1 79 39 c43 21 90 43 103 50 13 6 58 48 99 93 l74 81 47
-28 c25 -15 69 -43 98 -63z"/>
<path d="M587 1295 c-13 -10 -17 -28 -17 -89 l0 -76 104 0 c117 0 116 -1 116
79 0 33 -6 56 -19 73 -18 22 -27 25 -93 25 -44 0 -81 -4 -91 -12z m161 -46
c26 -50 -1 -112 -42 -96 -12 5 -16 19 -16 55 0 71 31 93 58 41z m-98 -39 c0
-46 -3 -60 -15 -60 -22 0 -34 32 -28 78 4 32 10 42 24 42 16 0 19 -8 19 -60z"/>
<path d="M1575 600 c-11 -5 -35 -22 -54 -38 l-34 -29 26 -52 c15 -28 25 -51
22 -51 -3 0 1 -13 10 -30 9 -16 18 -30 20 -30 3 0 24 19 48 43 61 60 73 130
29 180 -16 19 -36 21 -67 7z m45 -73 c13 -24 13 -30 0 -54 -23 -40 -34 -38
-58 13 -22 44 -22 47 -5 60 25 19 45 13 63 -19z"/>
<path d="M372 578 c-20 -20 -14 -53 18 -93 32 -40 35 -50 21 -59 -10 -6 -71
58 -71 75 0 6 -4 7 -10 4 -20 -12 -9 -45 25 -80 44 -44 83 -55 102 -30 21 29
16 50 -22 95 -19 23 -35 46 -35 51 0 21 30 6 59 -28 30 -38 30 -38 31 -12 0
18 -11 37 -35 58 -38 33 -63 39 -83 19z"/>
<path d="M510 491 c0 -10 10 -25 22 -33 l21 -14 -25 -66 c-18 -48 -23 -69 -15
-77 22 -22 34 -10 52 49 21 69 27 75 55 60 17 -9 20 -8 20 7 0 11 -23 32 -60
56 -33 20 -62 37 -65 37 -3 0 -5 -8 -5 -19z"/>
<path d="M1380 458 c-19 -12 -37 -23 -39 -24 -2 -2 7 -33 19 -70 12 -38 22
-76 23 -86 2 -22 7 -22 32 -4 17 12 18 17 7 41 -18 39 -5 49 34 24 33 -20 36
-20 61 -4 l27 18 -38 19 c-33 17 -37 23 -32 45 16 63 -27 82 -94 41z m55 -51
c-9 -23 -35 -29 -42 -10 -4 9 1 21 12 29 22 16 39 5 30 -19z"/>
<path d="M672 348 c-20 -33 -43 -67 -51 -75 -11 -12 -11 -16 5 -28 17 -13 21
-12 33 5 12 18 15 18 42 4 16 -8 29 -21 29 -29 0 -13 38 -41 44 -33 4 4 -12
155 -19 184 -3 12 -14 24 -25 27 -17 4 -28 -6 -58 -55z m44 -66 c-4 -3 -11 -1
-17 5 -8 8 -7 18 3 34 l13 24 3 -28 c2 -16 1 -31 -2 -35z"/>
<path d="M1207 379 c-15 -11 -32 -37 -38 -59 -10 -32 -9 -44 7 -77 17 -34 24
-38 60 -41 31 -2 46 2 67 22 45 42 48 97 6 149 -25 33 -66 35 -102 6z m64 -32
c39 -30 24 -107 -21 -107 -38 0 -57 89 -22 109 22 13 24 13 43 -2z"/>
<path d="M827 348 c-3 -13 -9 -56 -13 -95 -6 -70 -6 -73 15 -73 17 0 21 6 21
33 0 48 16 67 25 28 8 -39 37 -41 52 -3 10 25 11 23 12 -25 1 -50 3 -53 26
-53 25 0 25 0 25 95 0 94 0 95 -24 95 -19 0 -27 -8 -36 -35 -16 -50 -28 -51
-40 -5 -6 22 -19 44 -30 50 -26 14 -27 13 -33 -12z"/>
<path d="M1057 353 l-28 -4 3 -92 c3 -84 5 -92 23 -92 17 0 20 6 17 42 -2 40
-1 42 30 45 23 2 34 9 36 22 4 16 0 18 -32 12 -32 -6 -36 -5 -36 14 0 13 7 20
19 20 30 0 51 11 51 26 0 14 -23 16 -83 7z"/>
</g>
</svg>
